<svg xmlns="http://www.w3.org/2000/svg" width="960" height="540" viewBox="0 0 960 540" role="img" aria-label="キャンプ・アウトドア用品">
  <rect width="960" height="540" fill="#e9edf6"/>
  <rect x="0" y="358" width="960" height="182" fill="#f8faf7"/>
  <circle cx="790" cy="122" r="90" fill="#52749c" opacity=".18"/>
  <circle cx="760" cy="124" r="62" fill="#f7d36f" opacity=".34"/>
  <path d="M92 398 L222 188 L352 398 Z" fill="#fff8ec" stroke="#c8d0da" stroke-width="3"/>
  <path d="M222 188 L222 398" stroke="#52749c" stroke-width="5" opacity=".7"/>
  <path d="M144 398 L222 268 L300 398 Z" fill="#52749c" opacity=".22"/>
  <rect x="420" y="240" width="172" height="120" rx="18" fill="#ffffff" stroke="#ccd6d8"/>
  <rect x="444" y="270" width="124" height="20" rx="10" fill="#52749c" opacity=".55"/>
  <rect x="444" y="306" width="92" height="16" rx="8" fill="#52749c" opacity=".22"/>
  <rect x="650" y="280" width="160" height="72" rx="18" fill="#ffffff" stroke="#ccd6d8"/>
  <rect x="670" y="300" width="120" height="16" rx="8" fill="#52749c" opacity=".45"/>
  <rect x="670" y="326" width="84" height="12" rx="6" fill="#52749c" opacity=".2"/>
  <path d="M0 426 C150 374, 260 376, 420 424 S720 494, 960 418 V540 H0 Z" fill="#52749c" opacity=".12"/>
  <text x="88" y="86" font-family="Segoe UI, sans-serif" font-size="42" font-weight="800" fill="#243b5b">キャンプ・アウトドア用品</text>
  <text x="88" y="452" font-family="Segoe UI, sans-serif" font-size="24" font-weight="700" fill="#52749c">収納しやすく、毎回使える道具から選ぶ</text>
</svg>
