<svg xmlns="http://www.w3.org/2000/svg" width="960" height="540" viewBox="0 0 960 540" role="img" aria-label="Rainy season preparation">
  <rect width="960" height="540" fill="#eef6f3"/>
  <circle cx="760" cy="128" r="82" fill="#bddfd6"/>
  <path d="M0 416C150 372 280 388 406 430C536 474 660 516 800 488C872 474 920 436 960 420V540H0Z" fill="#cfe8df"/>
  <g transform="translate(156 96)">
    <path d="M60 190c56-92 206-92 262 0Z" fill="#1a6d65" opacity=".86"/>
    <path d="M190 190v116c0 34 42 34 42 0" fill="none" stroke="#1a6d65" stroke-width="18" stroke-linecap="round"/>
    <rect x="396" y="96" width="154" height="238" rx="24" fill="#fffdf8" stroke="#d8ddd5" stroke-width="3"/>
    <rect x="430" y="136" width="86" height="18" rx="9" fill="#ca5e39"/>
    <path d="M430 190h88M430 224h66" stroke="#9fcfc5" stroke-width="14" stroke-linecap="round"/>
    <path d="M40 290c28 28 68 28 96 0M86 334c28 28 68 28 96 0M262 310c28 28 68 28 96 0" fill="none" stroke="#9fcfc5" stroke-width="14" stroke-linecap="round"/>
  </g>
</svg>
