<svg xmlns="http://www.w3.org/2000/svg" width="960" height="540" viewBox="0 0 960 540" role="img" aria-label="School and new life">
  <rect width="960" height="540" fill="#f6faf8"/>
  <circle cx="780" cy="118" r="78" fill="#f1d69a"/>
  <path d="M0 416C150 370 270 386 402 430C532 474 660 520 800 490C872 474 918 436 960 418V540H0Z" fill="#d7ece6"/>
  <g transform="translate(172 96)">
    <rect x="0" y="118" width="180" height="230" rx="22" fill="#fffdf8" stroke="#d8ddd5" stroke-width="3"/>
    <path d="M0 162h180" stroke="#1a6d65" stroke-width="18"/>
    <rect x="38" y="202" width="104" height="16" rx="8" fill="#9fcfc5"/>
    <rect x="38" y="236" width="82" height="12" rx="6" fill="#e9c8b5"/>
    <rect x="244" y="92" width="156" height="256" rx="18" fill="#ffffff" stroke="#d8ddd5" stroke-width="3"/>
    <path d="M282 142h80M282 184h64M282 226h92" stroke="#ca5e39" stroke-width="16" stroke-linecap="round"/>
    <rect x="466" y="150" width="150" height="198" rx="20" fill="#fffdf8" stroke="#d8ddd5" stroke-width="3"/>
    <rect x="500" y="190" width="82" height="78" rx="10" fill="#d7eadf"/>
  </g>
</svg>
