<svg xmlns="http://www.w3.org/2000/svg" width="960" height="540" viewBox="0 0 960 540" role="img" aria-label="Spring event">
  <rect width="960" height="540" fill="#fff7f2"/>
  <circle cx="760" cy="120" r="84" fill="#f2cdbd"/>
  <circle cx="190" cy="438" r="98" fill="#d7eadf"/>
  <path d="M0 410C140 370 270 384 400 428C536 474 664 520 806 488C884 470 920 436 960 420V540H0Z" fill="#f1dccf"/>
  <g transform="translate(190 104)">
    <circle cx="82" cy="150" r="44" fill="#f2cdbd"/>
    <circle cx="132" cy="126" r="44" fill="#efb8a5"/>
    <circle cx="178" cy="150" r="44" fill="#f2cdbd"/>
    <rect x="116" y="170" width="28" height="166" rx="14" fill="#1a6d65"/>
    <rect x="278" y="112" width="174" height="224" rx="22" fill="#fffdf8" stroke="#d8ddd5" stroke-width="3"/>
    <rect x="314" y="154" width="102" height="16" rx="8" fill="#ca5e39"/>
    <rect x="314" y="196" width="82" height="12" rx="6" fill="#9fcfc5"/>
    <rect x="314" y="224" width="110" height="12" rx="6" fill="#9fcfc5"/>
    <path d="M520 234c36-70 102-70 138 0" fill="none" stroke="#d7eadf" stroke-width="26" stroke-linecap="round"/>
  </g>
</svg>
